:SAMPLES-PER-SECOND 30
:FULLY-SPECIFIED
:DEGREES
795
root  -38.0617 38.1356 6.35129 157.817 -77.8243 -164.06
RightUpLeg  -9.563 8.27257 -7.20125
RightLeg  28.9445 6.07906 3.40043
RightFoot  -14.8725 0.0842577 6.00536
RightToes  1.45519e-009 0 -3.6325e-017
Spine  10.0207 -2.00265 -9.75349
Spine1  -1.84951 -5.07751 15.0446
HEad  -17.5192 -55.4982 12.5445
LeftShoulder1  0.0773033 3.29059 -30.2016
LeftArm  -1.51129 4.67574 -41.7444
LeftForeArm  32.7886 -11.9317 -7.80697
LeftHand  -0.178559 10.1857 -2.85937
RightShoulder  -0.549254 -6.44103 11.284
RightArm  -56.7245 32.638 -2.17802
RightForeArm  -13.8116 32.2845 8.28276
RightHand  -2.26654 18.7321 -11.3271
LeftUpLeg  -11.1373 2.31033 4.7299
LeftLeg  38.3695 2.21196 2.25541
LeftFoot  -19.3262 0.266799 2.16067
LeftToes  -2.53752e-010 -2.07034e-011 -2.70101e-011
796
root  -38.1596 38.3249 6.40524 156.384 -78.3997 -161.614
RightUpLeg  -9.25862 7.98287 -7.06543
RightLeg  26.8303 5.68033 2.88994
RightFoot  -14.1131 0.0566948 6.29634
RightToes  1.45519e-009 0 -3.6325e-017
Spine  9.65583 -2.43478 -10.3825
Spine1  -3.09172 -5.39668 15.4469
HEad  -18.5243 -55.7165 12.6995
LeftShoulder1  0.102125 3.21854 -29.6623
LeftArm  -1.81705 6.1072 -40.9486
LeftForeArm  33.2861 -12.0968 -7.62343
LeftHand  -0.243886 10.4995 -3.92739
RightShoulder  -0.662062 -7.14728 10.765
RightArm  -60.6216 29.6111 -6.18436
RightForeArm  -8.10724 47.3626 12.7778
RightHand  -2.40236 16.5703 -13.0115
LeftUpLeg  -11.5287 1.70203 4.79811
LeftLeg  37.0124 2.20537 2.15691
LeftFoot  -18.6845 0.266296 2.40259
LeftToes  -2.53752e-010 -2.07034e-011 -2.70101e-011
797
root  -38.248 38.4555 6.44517 155.628 -78.7637 -160.269
RightUpLeg  -8.91202 7.88337 -7.04304
RightLeg  25.3749 5.38528 2.55645
RightFoot  -13.606 0.0359688 6.48416
RightToes  1.45519e-009 0 -3.6325e-017
Spine  9.60672 -2.82324 -11.0975
Spine1  -4.03366 -5.71994 15.613
HEad  -19.2544 -55.8017 12.3215
LeftShoulder1  0.0674183 3.31527 -29.6501
LeftArm  -1.42196 7.3116 -39.4963
LeftForeArm  32.4675 -12.9575 -7.26512
LeftHand  -0.378551 11.9101 -5.34892
RightShoulder  -0.648524 -7.63029 8.07251
RightArm  -66.8699 26.712 -8.40602
RightForeArm  5.75336 61.3396 20.8308
RightHand  -1.93075 16.0777 -10.8211
LeftUpLeg  -11.5873 1.53047 4.79584
LeftLeg  35.975 2.0883 1.99514
LeftFoot  -18.2064 0.264461 2.5842
LeftToes  -2.53752e-010 -2.07034e-011 -2.70101e-011
798
root  -38.302 38.4889 6.45743 154.532 -78.9316 -158.616
RightUpLeg  -9.10312 7.56317 -6.89478
RightLeg  24.8987 5.35019 2.48408
RightFoot  -13.4775 0.0311806 6.57362
RightToes  1.45519e-009 0 -3.6325e-017
Spine  9.59196 -3.16142 -10.9335
Spine1  -4.83397 -5.77161 14.5222
HEad  -20.0176 -56.7501 12.86
LeftShoulder1  0.110169 3.18968 -28.9459
LeftArm  -2.66953 7.96562 -38.3743
LeftForeArm  31.7457 -12.6997 -7.07955
LeftHand  -0.287413 11.3477 -4.20553
RightShoulder  -0.674654 -8.37219 5.98935
RightArm  -73.8052 24.1579 -10.8294
RightForeArm  26.7048 73.0829 38.535
RightHand  -1.7951 15.2732 -10.4677
LeftUpLeg  -12.047 1.17379 4.95585
LeftLeg  35.8068 2.15786 2.03888
LeftFoot  -18.1504 0.260771 2.55126
LeftToes  -2.53752e-010 -2.07034e-011 -2.70101e-011
799
root  -38.3224 38.4556 6.46014 152.382 -78.955 -156.31
RightUpLeg  -9.20115 7.01202 -6.55192
RightLeg  25.0183 5.63287 2.64144
RightFoot  -13.5795 0.0369817 6.60869
RightToes  1.45519e-009 0 -3.6325e-017
Spine  10.0396 -3.39445 -10.6092
Spine1  -5.74944 -5.73985 13.3451
HEad  -20.2602 -57.634 13.1762
LeftShoulder1  0.166162 3.02383 -28.4594
LeftArm  -4.01167 8.39599 -37.2247
LeftForeArm  31.1291 -12.4075 -6.83569
LeftHand  -0.324585 11.9644 -4.38918
RightShoulder  -0.666497 -8.92969 4.23989
RightArm  -80.4203 21.9867 -12.7033
RightForeArm  71.2331 79.3195 81.4967
RightHand  -2.00616 15.0546 -11.7417
LeftUpLeg  -12.4261 0.937781 5.35082
LeftLeg  36.3031 2.15271 2.06729
LeftFoot  -18.2576 0.277985 2.78563
LeftToes  -2.53752e-010 -2.07034e-011 -2.70101e-011
800
root  -38.3443 38.3744 6.45312 149.265 -78.8429 -153.376
RightUpLeg  -9.11371 6.38716 -5.9986
RightLeg  25.5513 6.01762 2.9055
RightFoot  -13.9256 0.0515354 6.47161
RightToes  1.45519e-009 0 -3.6325e-017
Spine  10.466 -3.53006 -10.5125
Spine1  -5.98032 -5.78035 12.6641
HEad  -20.4259 -58.201 13.3238
LeftShoulder1  0.164156 3.02161 -27.8824
LeftArm  -4.9277 8.76009 -36.7107
LeftForeArm  30.3444 -12.8076 -6.42236
LeftHand  -0.274846 12.1466 -3.40788
RightShoulder  -0.715067 -9.7605 3.28422
RightArm  -86.3735 20.7382 -14.5281
RightForeArm  115.504 76.8461 127.088
RightHand  -2.36754 14.7254 -13.9733
LeftUpLeg  -12.6149 0.604105 5.93889
LeftLeg  37.2414 2.22453 2.18644
LeftFoot  -18.715 0.291062 2.77168
LeftToes  -2.53752e-010 -2.07034e-011 -2.70101e-011
801
root  -38.3605 38.2768 6.43641 147.872 -78.5488 -152.079
RightUpLeg  -9.35508 5.93923 -5.66101
RightLeg  26.3655 6.49968 3.27079
RightFoot  -14.3676 0.0702147 6.34366
RightToes  1.45519e-009 0 -3.6325e-017
Spine  10.987 -3.43114 -11.1906
Spine1  -6.45172 -5.71457 12.6022
HEad  -19.4561 -58.5948 12.3619
LeftShoulder1  0.159883 3.03283 -27.7836
LeftArm  -5.66572 9.24732 -36.2232
LeftForeArm  28.6455 -13.3497 -6.00346
LeftHand  -0.184693 11.8676 -2.06576
RightShoulder  -0.769751 -10.6423 2.5393
RightArm  -90.0601 20.0851 -15.6081
RightForeArm  132.688 72.1504 144.452
RightHand  -2.04159 14.306 -12.3827
LeftUpLeg  -12.9 0.823781 6.39546
LeftLeg  38.221 2.1305 2.17545
LeftFoot  -19.2024 0.305231 2.76451
LeftToes  -2.53752e-010 -2.07034e-011 -2.70101e-011
802
root  -38.3652 38.1507 6.43516 145.896 -78.0613 -150.337
RightUpLeg  -9.53076 5.40395 -5.1441
RightLeg  27.2973 7.10983 3.7456
RightFoot  -14.8693 0.0924256 6.27318
RightToes  1.45519e-009 0 -3.6325e-017
Spine  11.6712 -3.3733 -11.7269
Spine1  -7.05839 -5.71685 12.7714
HEad  -18.88 -58.6871 12.2318
LeftShoulder1  0.16603 3.01371 -27.7364
LeftArm  -5.27117 9.77204 -35.6564
LeftForeArm  27.012 -13.9463 -5.86322
LeftHand  -0.183906 11.8685 -2.03958
RightShoulder  -0.693856 -10.5445 1.51438
RightArm  -91.1194 19.085 -15.1834
RightForeArm  137.801 68.6536 151.104
RightHand  -2.15135 14.7592 -12.7496
LeftUpLeg  -13.1222 0.949143 7.05037
LeftLeg  39.439 2.05998 2.20056
LeftFoot  -19.8568 0.313695 2.61136
LeftToes  -2.53752e-010 -2.07034e-011 -2.70101e-011
